G04 #@! TF.GenerationSoftware,KiCad,Pcbnew,5.0.2-bee76a0~70~ubuntu18.04.1*
G04 #@! TF.CreationDate,2019-02-08T19:23:00+01:00*
G04 #@! TF.ProjectId,Metering,4d657465-7269-46e6-972e-6b696361645f,rev?*
G04 #@! TF.SameCoordinates,Original*
G04 #@! TF.FileFunction,Legend,Top*
G04 #@! TF.FilePolarity,Positive*
%FSLAX46Y46*%
G04 Gerber Fmt 4.6, Leading zero omitted, Abs format (unit mm)*
G04 Created by KiCad (PCBNEW 5.0.2-bee76a0~70~ubuntu18.04.1) date Fr 08 Feb 2019 19:23:00 CET*
%MOMM*%
%LPD*%
G01*
G04 APERTURE LIST*
%ADD10C,0.150000*%
%ADD11C,0.300000*%
%ADD12C,0.120000*%
%ADD13C,0.381000*%
%ADD14C,0.304800*%
%ADD15C,0.254000*%
%ADD16C,0.203200*%
G04 APERTURE END LIST*
D10*
X100000000Y-95000000D02*
X105000000Y-100000000D01*
X100000000Y-55000000D02*
X105000000Y-50000000D01*
X195000000Y-100000000D02*
X200000000Y-95000000D01*
X195000000Y-50000000D02*
X200000000Y-55000000D01*
D11*
X190345428Y-57955571D02*
X190345428Y-56455571D01*
X191059714Y-57955571D02*
X191059714Y-56955571D01*
X191059714Y-57098428D02*
X191131142Y-57027000D01*
X191274000Y-56955571D01*
X191488285Y-56955571D01*
X191631142Y-57027000D01*
X191702571Y-57169857D01*
X191702571Y-57955571D01*
X191702571Y-57169857D02*
X191774000Y-57027000D01*
X191916857Y-56955571D01*
X192131142Y-56955571D01*
X192274000Y-57027000D01*
X192345428Y-57169857D01*
X192345428Y-57955571D01*
X193059714Y-56955571D02*
X193059714Y-58455571D01*
X193059714Y-57027000D02*
X193202571Y-56955571D01*
X193488285Y-56955571D01*
X193631142Y-57027000D01*
X193702571Y-57098428D01*
X193774000Y-57241285D01*
X193774000Y-57669857D01*
X193702571Y-57812714D01*
X193631142Y-57884142D01*
X193488285Y-57955571D01*
X193202571Y-57955571D01*
X193059714Y-57884142D01*
X190778000Y-72814571D02*
X190278000Y-72100285D01*
X189920857Y-72814571D02*
X189920857Y-71314571D01*
X190492285Y-71314571D01*
X190635142Y-71386000D01*
X190706571Y-71457428D01*
X190778000Y-71600285D01*
X190778000Y-71814571D01*
X190706571Y-71957428D01*
X190635142Y-72028857D01*
X190492285Y-72100285D01*
X189920857Y-72100285D01*
X191992285Y-72743142D02*
X191849428Y-72814571D01*
X191563714Y-72814571D01*
X191420857Y-72743142D01*
X191349428Y-72600285D01*
X191349428Y-72028857D01*
X191420857Y-71886000D01*
X191563714Y-71814571D01*
X191849428Y-71814571D01*
X191992285Y-71886000D01*
X192063714Y-72028857D01*
X192063714Y-72171714D01*
X191349428Y-72314571D01*
X193278000Y-72743142D02*
X193135142Y-72814571D01*
X192849428Y-72814571D01*
X192706571Y-72743142D01*
X192635142Y-72600285D01*
X192635142Y-72028857D01*
X192706571Y-71886000D01*
X192849428Y-71814571D01*
X193135142Y-71814571D01*
X193278000Y-71886000D01*
X193349428Y-72028857D01*
X193349428Y-72171714D01*
X192635142Y-72314571D01*
X194635142Y-72814571D02*
X194635142Y-71314571D01*
X194635142Y-72743142D02*
X194492285Y-72814571D01*
X194206571Y-72814571D01*
X194063714Y-72743142D01*
X193992285Y-72671714D01*
X193920857Y-72528857D01*
X193920857Y-72100285D01*
X193992285Y-71957428D01*
X194063714Y-71886000D01*
X194206571Y-71814571D01*
X194492285Y-71814571D01*
X194635142Y-71886000D01*
X190365285Y-66107571D02*
X190865285Y-67607571D01*
X191365285Y-66107571D01*
X192508142Y-67536142D02*
X192365285Y-67607571D01*
X192079571Y-67607571D01*
X191936714Y-67536142D01*
X191865285Y-67464714D01*
X191793857Y-67321857D01*
X191793857Y-66893285D01*
X191865285Y-66750428D01*
X191936714Y-66679000D01*
X192079571Y-66607571D01*
X192365285Y-66607571D01*
X192508142Y-66679000D01*
X193793857Y-67536142D02*
X193651000Y-67607571D01*
X193365285Y-67607571D01*
X193222428Y-67536142D01*
X193151000Y-67464714D01*
X193079571Y-67321857D01*
X193079571Y-66893285D01*
X193151000Y-66750428D01*
X193222428Y-66679000D01*
X193365285Y-66607571D01*
X193651000Y-66607571D01*
X193793857Y-66679000D01*
X191135142Y-61099000D02*
X190992285Y-61027571D01*
X190778000Y-61027571D01*
X190563714Y-61099000D01*
X190420857Y-61241857D01*
X190349428Y-61384714D01*
X190278000Y-61670428D01*
X190278000Y-61884714D01*
X190349428Y-62170428D01*
X190420857Y-62313285D01*
X190563714Y-62456142D01*
X190778000Y-62527571D01*
X190920857Y-62527571D01*
X191135142Y-62456142D01*
X191206571Y-62384714D01*
X191206571Y-61884714D01*
X190920857Y-61884714D01*
X191849428Y-62527571D02*
X191849428Y-61027571D01*
X192706571Y-62527571D01*
X192706571Y-61027571D01*
X193420857Y-62527571D02*
X193420857Y-61027571D01*
X193778000Y-61027571D01*
X193992285Y-61099000D01*
X194135142Y-61241857D01*
X194206571Y-61384714D01*
X194278000Y-61670428D01*
X194278000Y-61884714D01*
X194206571Y-62170428D01*
X194135142Y-62313285D01*
X193992285Y-62456142D01*
X193778000Y-62527571D01*
X193420857Y-62527571D01*
X191008142Y-76085000D02*
X190865285Y-76013571D01*
X190651000Y-76013571D01*
X190436714Y-76085000D01*
X190293857Y-76227857D01*
X190222428Y-76370714D01*
X190151000Y-76656428D01*
X190151000Y-76870714D01*
X190222428Y-77156428D01*
X190293857Y-77299285D01*
X190436714Y-77442142D01*
X190651000Y-77513571D01*
X190793857Y-77513571D01*
X191008142Y-77442142D01*
X191079571Y-77370714D01*
X191079571Y-76870714D01*
X190793857Y-76870714D01*
X191722428Y-77513571D02*
X191722428Y-76013571D01*
X192579571Y-77513571D01*
X192579571Y-76013571D01*
X193293857Y-77513571D02*
X193293857Y-76013571D01*
X193651000Y-76013571D01*
X193865285Y-76085000D01*
X194008142Y-76227857D01*
X194079571Y-76370714D01*
X194151000Y-76656428D01*
X194151000Y-76870714D01*
X194079571Y-77156428D01*
X194008142Y-77299285D01*
X193865285Y-77442142D01*
X193651000Y-77513571D01*
X193293857Y-77513571D01*
X156892857Y-74108571D02*
X157821428Y-74108571D01*
X157321428Y-74680000D01*
X157535714Y-74680000D01*
X157678571Y-74751428D01*
X157750000Y-74822857D01*
X157821428Y-74965714D01*
X157821428Y-75322857D01*
X157750000Y-75465714D01*
X157678571Y-75537142D01*
X157535714Y-75608571D01*
X157107142Y-75608571D01*
X156964285Y-75537142D01*
X156892857Y-75465714D01*
X158250000Y-74108571D02*
X158750000Y-75608571D01*
X159250000Y-74108571D01*
X159607142Y-74108571D02*
X160535714Y-74108571D01*
X160035714Y-74680000D01*
X160250000Y-74680000D01*
X160392857Y-74751428D01*
X160464285Y-74822857D01*
X160535714Y-74965714D01*
X160535714Y-75322857D01*
X160464285Y-75465714D01*
X160392857Y-75537142D01*
X160250000Y-75608571D01*
X159821428Y-75608571D01*
X159678571Y-75537142D01*
X159607142Y-75465714D01*
X114173142Y-83070000D02*
X114030285Y-82998571D01*
X113816000Y-82998571D01*
X113601714Y-83070000D01*
X113458857Y-83212857D01*
X113387428Y-83355714D01*
X113316000Y-83641428D01*
X113316000Y-83855714D01*
X113387428Y-84141428D01*
X113458857Y-84284285D01*
X113601714Y-84427142D01*
X113816000Y-84498571D01*
X113958857Y-84498571D01*
X114173142Y-84427142D01*
X114244571Y-84355714D01*
X114244571Y-83855714D01*
X113958857Y-83855714D01*
X114887428Y-84498571D02*
X114887428Y-82998571D01*
X115744571Y-84498571D01*
X115744571Y-82998571D01*
X116458857Y-84498571D02*
X116458857Y-82998571D01*
X116816000Y-82998571D01*
X117030285Y-83070000D01*
X117173142Y-83212857D01*
X117244571Y-83355714D01*
X117316000Y-83641428D01*
X117316000Y-83855714D01*
X117244571Y-84141428D01*
X117173142Y-84284285D01*
X117030285Y-84427142D01*
X116816000Y-84498571D01*
X116458857Y-84498571D01*
X114046142Y-65671000D02*
X113903285Y-65599571D01*
X113689000Y-65599571D01*
X113474714Y-65671000D01*
X113331857Y-65813857D01*
X113260428Y-65956714D01*
X113189000Y-66242428D01*
X113189000Y-66456714D01*
X113260428Y-66742428D01*
X113331857Y-66885285D01*
X113474714Y-67028142D01*
X113689000Y-67099571D01*
X113831857Y-67099571D01*
X114046142Y-67028142D01*
X114117571Y-66956714D01*
X114117571Y-66456714D01*
X113831857Y-66456714D01*
X114760428Y-67099571D02*
X114760428Y-65599571D01*
X115617571Y-67099571D01*
X115617571Y-65599571D01*
X116331857Y-67099571D02*
X116331857Y-65599571D01*
X116689000Y-65599571D01*
X116903285Y-65671000D01*
X117046142Y-65813857D01*
X117117571Y-65956714D01*
X117189000Y-66242428D01*
X117189000Y-66456714D01*
X117117571Y-66742428D01*
X117046142Y-66885285D01*
X116903285Y-67028142D01*
X116689000Y-67099571D01*
X116331857Y-67099571D01*
X157734142Y-71640000D02*
X157591285Y-71568571D01*
X157377000Y-71568571D01*
X157162714Y-71640000D01*
X157019857Y-71782857D01*
X156948428Y-71925714D01*
X156877000Y-72211428D01*
X156877000Y-72425714D01*
X156948428Y-72711428D01*
X157019857Y-72854285D01*
X157162714Y-72997142D01*
X157377000Y-73068571D01*
X157519857Y-73068571D01*
X157734142Y-72997142D01*
X157805571Y-72925714D01*
X157805571Y-72425714D01*
X157519857Y-72425714D01*
X158448428Y-73068571D02*
X158448428Y-71568571D01*
X159305571Y-73068571D01*
X159305571Y-71568571D01*
X160019857Y-73068571D02*
X160019857Y-71568571D01*
X160377000Y-71568571D01*
X160591285Y-71640000D01*
X160734142Y-71782857D01*
X160805571Y-71925714D01*
X160877000Y-72211428D01*
X160877000Y-72425714D01*
X160805571Y-72711428D01*
X160734142Y-72854285D01*
X160591285Y-72997142D01*
X160377000Y-73068571D01*
X160019857Y-73068571D01*
X157607142Y-65417000D02*
X157464285Y-65345571D01*
X157250000Y-65345571D01*
X157035714Y-65417000D01*
X156892857Y-65559857D01*
X156821428Y-65702714D01*
X156750000Y-65988428D01*
X156750000Y-66202714D01*
X156821428Y-66488428D01*
X156892857Y-66631285D01*
X157035714Y-66774142D01*
X157250000Y-66845571D01*
X157392857Y-66845571D01*
X157607142Y-66774142D01*
X157678571Y-66702714D01*
X157678571Y-66202714D01*
X157392857Y-66202714D01*
X158321428Y-66845571D02*
X158321428Y-65345571D01*
X159178571Y-66845571D01*
X159178571Y-65345571D01*
X159892857Y-66845571D02*
X159892857Y-65345571D01*
X160250000Y-65345571D01*
X160464285Y-65417000D01*
X160607142Y-65559857D01*
X160678571Y-65702714D01*
X160750000Y-65988428D01*
X160750000Y-66202714D01*
X160678571Y-66488428D01*
X160607142Y-66631285D01*
X160464285Y-66774142D01*
X160250000Y-66845571D01*
X159892857Y-66845571D01*
X157607142Y-76847000D02*
X157464285Y-76775571D01*
X157250000Y-76775571D01*
X157035714Y-76847000D01*
X156892857Y-76989857D01*
X156821428Y-77132714D01*
X156750000Y-77418428D01*
X156750000Y-77632714D01*
X156821428Y-77918428D01*
X156892857Y-78061285D01*
X157035714Y-78204142D01*
X157250000Y-78275571D01*
X157392857Y-78275571D01*
X157607142Y-78204142D01*
X157678571Y-78132714D01*
X157678571Y-77632714D01*
X157392857Y-77632714D01*
X158321428Y-78275571D02*
X158321428Y-76775571D01*
X159178571Y-78275571D01*
X159178571Y-76775571D01*
X159892857Y-78275571D02*
X159892857Y-76775571D01*
X160250000Y-76775571D01*
X160464285Y-76847000D01*
X160607142Y-76989857D01*
X160678571Y-77132714D01*
X160750000Y-77418428D01*
X160750000Y-77632714D01*
X160678571Y-77918428D01*
X160607142Y-78061285D01*
X160464285Y-78204142D01*
X160250000Y-78275571D01*
X159892857Y-78275571D01*
X157861142Y-82943000D02*
X157718285Y-82871571D01*
X157504000Y-82871571D01*
X157289714Y-82943000D01*
X157146857Y-83085857D01*
X157075428Y-83228714D01*
X157004000Y-83514428D01*
X157004000Y-83728714D01*
X157075428Y-84014428D01*
X157146857Y-84157285D01*
X157289714Y-84300142D01*
X157504000Y-84371571D01*
X157646857Y-84371571D01*
X157861142Y-84300142D01*
X157932571Y-84228714D01*
X157932571Y-83728714D01*
X157646857Y-83728714D01*
X158575428Y-84371571D02*
X158575428Y-82871571D01*
X159432571Y-84371571D01*
X159432571Y-82871571D01*
X160146857Y-84371571D02*
X160146857Y-82871571D01*
X160504000Y-82871571D01*
X160718285Y-82943000D01*
X160861142Y-83085857D01*
X160932571Y-83228714D01*
X161004000Y-83514428D01*
X161004000Y-83728714D01*
X160932571Y-84014428D01*
X160861142Y-84157285D01*
X160718285Y-84300142D01*
X160504000Y-84371571D01*
X160146857Y-84371571D01*
X113792142Y-76974000D02*
X113649285Y-76902571D01*
X113435000Y-76902571D01*
X113220714Y-76974000D01*
X113077857Y-77116857D01*
X113006428Y-77259714D01*
X112935000Y-77545428D01*
X112935000Y-77759714D01*
X113006428Y-78045428D01*
X113077857Y-78188285D01*
X113220714Y-78331142D01*
X113435000Y-78402571D01*
X113577857Y-78402571D01*
X113792142Y-78331142D01*
X113863571Y-78259714D01*
X113863571Y-77759714D01*
X113577857Y-77759714D01*
X114506428Y-78402571D02*
X114506428Y-76902571D01*
X115363571Y-78402571D01*
X115363571Y-76902571D01*
X116077857Y-78402571D02*
X116077857Y-76902571D01*
X116435000Y-76902571D01*
X116649285Y-76974000D01*
X116792142Y-77116857D01*
X116863571Y-77259714D01*
X116935000Y-77545428D01*
X116935000Y-77759714D01*
X116863571Y-78045428D01*
X116792142Y-78188285D01*
X116649285Y-78331142D01*
X116435000Y-78402571D01*
X116077857Y-78402571D01*
X113792142Y-71640000D02*
X113649285Y-71568571D01*
X113435000Y-71568571D01*
X113220714Y-71640000D01*
X113077857Y-71782857D01*
X113006428Y-71925714D01*
X112935000Y-72211428D01*
X112935000Y-72425714D01*
X113006428Y-72711428D01*
X113077857Y-72854285D01*
X113220714Y-72997142D01*
X113435000Y-73068571D01*
X113577857Y-73068571D01*
X113792142Y-72997142D01*
X113863571Y-72925714D01*
X113863571Y-72425714D01*
X113577857Y-72425714D01*
X114506428Y-73068571D02*
X114506428Y-71568571D01*
X115363571Y-73068571D01*
X115363571Y-71568571D01*
X116077857Y-73068571D02*
X116077857Y-71568571D01*
X116435000Y-71568571D01*
X116649285Y-71640000D01*
X116792142Y-71782857D01*
X116863571Y-71925714D01*
X116935000Y-72211428D01*
X116935000Y-72425714D01*
X116863571Y-72711428D01*
X116792142Y-72854285D01*
X116649285Y-72997142D01*
X116435000Y-73068571D01*
X116077857Y-73068571D01*
X113142857Y-74178571D02*
X114071428Y-74178571D01*
X113571428Y-74750000D01*
X113785714Y-74750000D01*
X113928571Y-74821428D01*
X114000000Y-74892857D01*
X114071428Y-75035714D01*
X114071428Y-75392857D01*
X114000000Y-75535714D01*
X113928571Y-75607142D01*
X113785714Y-75678571D01*
X113357142Y-75678571D01*
X113214285Y-75607142D01*
X113142857Y-75535714D01*
X114500000Y-74178571D02*
X115000000Y-75678571D01*
X115500000Y-74178571D01*
X115857142Y-74178571D02*
X116785714Y-74178571D01*
X116285714Y-74750000D01*
X116500000Y-74750000D01*
X116642857Y-74821428D01*
X116714285Y-74892857D01*
X116785714Y-75035714D01*
X116785714Y-75392857D01*
X116714285Y-75535714D01*
X116642857Y-75607142D01*
X116500000Y-75678571D01*
X116071428Y-75678571D01*
X115928571Y-75607142D01*
X115857142Y-75535714D01*
D10*
X100000000Y-95000000D02*
X100000000Y-55000000D01*
X195000000Y-100000000D02*
X105000000Y-100000000D01*
X200000000Y-55000000D02*
X200000000Y-95000000D01*
X105000000Y-50000000D02*
X195000000Y-50000000D01*
G04 #@! TO.C,REF\002A\002A*
X112286000Y-61000000D02*
G75*
G03X112286000Y-61000000I-2286000J0D01*
G01*
X112706000Y-88000000D02*
G75*
G03X112706000Y-88000000I-2286000J0D01*
G01*
X181286000Y-88000000D02*
G75*
G03X181286000Y-88000000I-2286000J0D01*
G01*
G04 #@! TO.C,U1*
X165626051Y-62230000D02*
G75*
G03X165626051Y-62230000I-1796051J0D01*
G01*
X165626051Y-87630000D02*
G75*
G03X165626051Y-87630000I-1796051J0D01*
G01*
X113556051Y-87630000D02*
G75*
G03X113556051Y-87630000I-1796051J0D01*
G01*
X113556051Y-62230000D02*
G75*
G03X113556051Y-62230000I-1796051J0D01*
G01*
X109200000Y-59680000D02*
X109200000Y-89680000D01*
X109200000Y-89680000D02*
X109200000Y-90180000D01*
X109200000Y-90180000D02*
X166200000Y-90180000D01*
X166200000Y-90180000D02*
X166200000Y-59680000D01*
X166200000Y-59680000D02*
X109200000Y-59680000D01*
D12*
G04 #@! TO.C,D1*
X170600000Y-56030000D02*
X170600000Y-58270000D01*
X170600000Y-58270000D02*
X174840000Y-58270000D01*
X174840000Y-58270000D02*
X174840000Y-56030000D01*
X174840000Y-56030000D02*
X170600000Y-56030000D01*
X169950000Y-57150000D02*
X170600000Y-57150000D01*
X175490000Y-57150000D02*
X174840000Y-57150000D01*
X171320000Y-56030000D02*
X171320000Y-58270000D01*
X171440000Y-56030000D02*
X171440000Y-58270000D01*
X171200000Y-56030000D02*
X171200000Y-58270000D01*
D10*
G04 #@! TO.C,REF\002A\002A*
X197286000Y-95000000D02*
G75*
G03X197286000Y-95000000I-2286000J0D01*
G01*
X107286000Y-95000000D02*
G75*
G03X107286000Y-95000000I-2286000J0D01*
G01*
D13*
G04 #@! TO.C,J9*
X189100000Y-59500000D02*
X189600000Y-59500000D01*
X187100000Y-57000000D02*
G75*
G03X187100000Y-57000000I-2000000J0D01*
G01*
X189100000Y-64500000D02*
X189600000Y-64500000D01*
X187100000Y-62000000D02*
G75*
G03X187100000Y-62000000I-2000000J0D01*
G01*
X187100000Y-67000000D02*
G75*
G03X187100000Y-67000000I-2000000J0D01*
G01*
X189100000Y-69500000D02*
X189600000Y-69500000D01*
X189100000Y-74500000D02*
X189600000Y-74500000D01*
X187100000Y-72000000D02*
G75*
G03X187100000Y-72000000I-2000000J0D01*
G01*
X187100000Y-77000000D02*
G75*
G03X187100000Y-77000000I-2000000J0D01*
G01*
X187600000Y-79500000D02*
X187600000Y-54500000D01*
X182700000Y-79500000D02*
X182700000Y-54500000D01*
X189100000Y-79500000D02*
X189100000Y-54500000D01*
X189600000Y-79500000D02*
X189600000Y-54500000D01*
X189600000Y-54500000D02*
X179800000Y-54500000D01*
X179800000Y-54500000D02*
X179800000Y-79500000D01*
X179800000Y-79500000D02*
X189600000Y-79500000D01*
D11*
G04 #@! TO.C,C2*
X157845000Y-56320000D02*
X158845000Y-56320000D01*
D14*
X159645000Y-57420000D02*
G75*
G03X159645000Y-57420000I-2800000J0D01*
G01*
X155145000Y-55220000D02*
X158545000Y-55220000D01*
X155545000Y-55020000D02*
X158145000Y-55020000D01*
X156045000Y-54820000D02*
X157645000Y-54820000D01*
D15*
G04 #@! TO.C,R1*
X171069000Y-70485000D02*
X175387000Y-70485000D01*
X171069000Y-68707000D02*
X171069000Y-70485000D01*
X175387000Y-68707000D02*
X171069000Y-68707000D01*
X175387000Y-70485000D02*
X175387000Y-68707000D01*
X175387000Y-69596000D02*
X177038000Y-69596000D01*
X171069000Y-69596000D02*
X169418000Y-69596000D01*
G04 #@! TO.C,R2*
X170561000Y-59690000D02*
X168910000Y-59690000D01*
X174879000Y-59690000D02*
X176530000Y-59690000D01*
X174879000Y-60579000D02*
X174879000Y-58801000D01*
X174879000Y-58801000D02*
X170561000Y-58801000D01*
X170561000Y-58801000D02*
X170561000Y-60579000D01*
X170561000Y-60579000D02*
X174879000Y-60579000D01*
G04 #@! TO.C,R3*
X170561000Y-62230000D02*
X168910000Y-62230000D01*
X174879000Y-62230000D02*
X176530000Y-62230000D01*
X174879000Y-63119000D02*
X174879000Y-61341000D01*
X174879000Y-61341000D02*
X170561000Y-61341000D01*
X170561000Y-61341000D02*
X170561000Y-63119000D01*
X170561000Y-63119000D02*
X174879000Y-63119000D01*
D13*
G04 #@! TO.C,J1*
X199400160Y-89590880D02*
X199400160Y-80589120D01*
X203901040Y-89590880D02*
X203901040Y-80589120D01*
X203901040Y-80589120D02*
X189301120Y-80589120D01*
X189301120Y-80589120D02*
X189301120Y-89590880D01*
X189301120Y-89590880D02*
X203901040Y-89590880D01*
D12*
G04 #@! TO.C,J2*
X156270000Y-87690000D02*
X156270000Y-85030000D01*
X120650000Y-87690000D02*
X156270000Y-87690000D01*
X120650000Y-85030000D02*
X156270000Y-85030000D01*
X120650000Y-87690000D02*
X120650000Y-85030000D01*
X119380000Y-87690000D02*
X118050000Y-87690000D01*
X118050000Y-87690000D02*
X118050000Y-86360000D01*
G04 #@! TO.C,J3*
X118050000Y-62170000D02*
X118050000Y-64830000D01*
X153670000Y-62170000D02*
X118050000Y-62170000D01*
X153670000Y-64830000D02*
X118050000Y-64830000D01*
X153670000Y-62170000D02*
X153670000Y-64830000D01*
X154940000Y-62170000D02*
X156270000Y-62170000D01*
X156270000Y-62170000D02*
X156270000Y-63500000D01*
G04 #@! TO.C,J4*
X156270000Y-64710000D02*
X156270000Y-66040000D01*
X154940000Y-64710000D02*
X156270000Y-64710000D01*
X153670000Y-64710000D02*
X153670000Y-67370000D01*
X153670000Y-67370000D02*
X118050000Y-67370000D01*
X153670000Y-64710000D02*
X118050000Y-64710000D01*
X118050000Y-64710000D02*
X118050000Y-67370000D01*
G04 #@! TO.C,J5*
X118050000Y-82490000D02*
X118050000Y-85150000D01*
X153670000Y-82490000D02*
X118050000Y-82490000D01*
X153670000Y-85150000D02*
X118050000Y-85150000D01*
X153670000Y-82490000D02*
X153670000Y-85150000D01*
X154940000Y-82490000D02*
X156270000Y-82490000D01*
X156270000Y-82490000D02*
X156270000Y-83820000D01*
G04 #@! TO.C,J6*
X156270000Y-73720000D02*
X156270000Y-71060000D01*
X120650000Y-73720000D02*
X156270000Y-73720000D01*
X120650000Y-71060000D02*
X156270000Y-71060000D01*
X120650000Y-73720000D02*
X120650000Y-71060000D01*
X119380000Y-73720000D02*
X118050000Y-73720000D01*
X118050000Y-73720000D02*
X118050000Y-72390000D01*
G04 #@! TO.C,J7*
X156270000Y-78800000D02*
X156270000Y-76140000D01*
X120650000Y-78800000D02*
X156270000Y-78800000D01*
X120650000Y-76140000D02*
X156270000Y-76140000D01*
X120650000Y-78800000D02*
X120650000Y-76140000D01*
X119380000Y-78800000D02*
X118050000Y-78800000D01*
X118050000Y-78800000D02*
X118050000Y-77470000D01*
G04 #@! TO.C,J8*
X156270000Y-76260000D02*
X156270000Y-73600000D01*
X120650000Y-76260000D02*
X156270000Y-76260000D01*
X120650000Y-73600000D02*
X156270000Y-73600000D01*
X120650000Y-76260000D02*
X120650000Y-73600000D01*
X119380000Y-76260000D02*
X118050000Y-76260000D01*
X118050000Y-76260000D02*
X118050000Y-74930000D01*
D14*
G04 #@! TO.C,C1*
X159220000Y-90110000D02*
X160820000Y-90110000D01*
X158720000Y-90310000D02*
X161320000Y-90310000D01*
X158320000Y-90510000D02*
X161720000Y-90510000D01*
X162820000Y-92710000D02*
G75*
G03X162820000Y-92710000I-2800000J0D01*
G01*
D11*
X161020000Y-91610000D02*
X162020000Y-91610000D01*
D12*
G04 #@! TO.C,J10*
X156270000Y-95310000D02*
X156270000Y-92650000D01*
X120650000Y-95310000D02*
X156270000Y-95310000D01*
X120650000Y-92650000D02*
X156270000Y-92650000D01*
X120650000Y-95310000D02*
X120650000Y-92650000D01*
X119380000Y-95310000D02*
X118050000Y-95310000D01*
X118050000Y-95310000D02*
X118050000Y-93980000D01*
G04 #@! TO.C,J11*
X151190000Y-57210000D02*
X151190000Y-54550000D01*
X125730000Y-57210000D02*
X151190000Y-57210000D01*
X125730000Y-54550000D02*
X151190000Y-54550000D01*
X125730000Y-57210000D02*
X125730000Y-54550000D01*
X124460000Y-57210000D02*
X123130000Y-57210000D01*
X123130000Y-57210000D02*
X123130000Y-55880000D01*
D10*
G04 #@! TO.C,REF\002A\002A*
X107286000Y-55000000D02*
G75*
G03X107286000Y-55000000I-2286000J0D01*
G01*
X197286000Y-55000000D02*
G75*
G03X197286000Y-55000000I-2286000J0D01*
G01*
D12*
G04 #@! TO.C,C3*
X172997000Y-77459000D02*
X172997000Y-74219000D01*
X175237000Y-77459000D02*
X175237000Y-74219000D01*
X172997000Y-77459000D02*
X173062000Y-77459000D01*
X175172000Y-77459000D02*
X175237000Y-77459000D01*
X172997000Y-74219000D02*
X173062000Y-74219000D01*
X175172000Y-74219000D02*
X175237000Y-74219000D01*
D15*
G04 #@! TO.C,R4*
X177038000Y-77978000D02*
X177038000Y-79629000D01*
X177038000Y-73660000D02*
X177038000Y-72009000D01*
X177927000Y-73660000D02*
X176149000Y-73660000D01*
X176149000Y-73660000D02*
X176149000Y-77978000D01*
X176149000Y-77978000D02*
X177927000Y-77978000D01*
X177927000Y-77978000D02*
X177927000Y-73660000D01*
G04 #@! TD*
G04 #@! TO.C,*
D10*
X267844761Y-127892380D02*
X268178095Y-128892380D01*
X268511428Y-127892380D01*
X268844761Y-128892380D02*
X268844761Y-127892380D01*
X269320952Y-128892380D02*
X269320952Y-127892380D01*
X269892380Y-128892380D01*
X269892380Y-127892380D01*
G04 #@! TO.C,U1*
X154392380Y-92535238D02*
X155392380Y-92201904D01*
X154392380Y-91868571D01*
X155392380Y-91535238D02*
X154392380Y-91535238D01*
X155392380Y-91059047D02*
X154392380Y-91059047D01*
X155392380Y-90487619D01*
X154392380Y-90487619D01*
X151900000Y-91178095D02*
X151852380Y-91273333D01*
X151852380Y-91416190D01*
X151900000Y-91559047D01*
X151995238Y-91654285D01*
X152090476Y-91701904D01*
X152280952Y-91749523D01*
X152423809Y-91749523D01*
X152614285Y-91701904D01*
X152709523Y-91654285D01*
X152804761Y-91559047D01*
X152852380Y-91416190D01*
X152852380Y-91320952D01*
X152804761Y-91178095D01*
X152757142Y-91130476D01*
X152423809Y-91130476D01*
X152423809Y-91320952D01*
X150312380Y-91987619D02*
X149836190Y-92320952D01*
X150312380Y-92559047D02*
X149312380Y-92559047D01*
X149312380Y-92178095D01*
X149360000Y-92082857D01*
X149407619Y-92035238D01*
X149502857Y-91987619D01*
X149645714Y-91987619D01*
X149740952Y-92035238D01*
X149788571Y-92082857D01*
X149836190Y-92178095D01*
X149836190Y-92559047D01*
X150264761Y-91606666D02*
X150312380Y-91463809D01*
X150312380Y-91225714D01*
X150264761Y-91130476D01*
X150217142Y-91082857D01*
X150121904Y-91035238D01*
X150026666Y-91035238D01*
X149931428Y-91082857D01*
X149883809Y-91130476D01*
X149836190Y-91225714D01*
X149788571Y-91416190D01*
X149740952Y-91511428D01*
X149693333Y-91559047D01*
X149598095Y-91606666D01*
X149502857Y-91606666D01*
X149407619Y-91559047D01*
X149360000Y-91511428D01*
X149312380Y-91416190D01*
X149312380Y-91178095D01*
X149360000Y-91035238D01*
X149312380Y-90749523D02*
X149312380Y-90178095D01*
X150312380Y-90463809D02*
X149312380Y-90463809D01*
X147248571Y-92178095D02*
X147248571Y-91844761D01*
X147772380Y-91701904D02*
X147772380Y-92178095D01*
X146772380Y-92178095D01*
X146772380Y-91701904D01*
X147772380Y-91273333D02*
X146772380Y-91273333D01*
X147772380Y-90701904D01*
X146772380Y-90701904D01*
X144232380Y-92201904D02*
X144232380Y-91582857D01*
X144613333Y-91916190D01*
X144613333Y-91773333D01*
X144660952Y-91678095D01*
X144708571Y-91630476D01*
X144803809Y-91582857D01*
X145041904Y-91582857D01*
X145137142Y-91630476D01*
X145184761Y-91678095D01*
X145232380Y-91773333D01*
X145232380Y-92059047D01*
X145184761Y-92154285D01*
X145137142Y-92201904D01*
X144232380Y-91297142D02*
X145232380Y-90963809D01*
X144232380Y-90630476D01*
X141740000Y-91178095D02*
X141692380Y-91273333D01*
X141692380Y-91416190D01*
X141740000Y-91559047D01*
X141835238Y-91654285D01*
X141930476Y-91701904D01*
X142120952Y-91749523D01*
X142263809Y-91749523D01*
X142454285Y-91701904D01*
X142549523Y-91654285D01*
X142644761Y-91559047D01*
X142692380Y-91416190D01*
X142692380Y-91320952D01*
X142644761Y-91178095D01*
X142597142Y-91130476D01*
X142263809Y-91130476D01*
X142263809Y-91320952D01*
X140104761Y-92225714D02*
X140152380Y-92082857D01*
X140152380Y-91844761D01*
X140104761Y-91749523D01*
X140057142Y-91701904D01*
X139961904Y-91654285D01*
X139866666Y-91654285D01*
X139771428Y-91701904D01*
X139723809Y-91749523D01*
X139676190Y-91844761D01*
X139628571Y-92035238D01*
X139580952Y-92130476D01*
X139533333Y-92178095D01*
X139438095Y-92225714D01*
X139342857Y-92225714D01*
X139247619Y-92178095D01*
X139200000Y-92130476D01*
X139152380Y-92035238D01*
X139152380Y-91797142D01*
X139200000Y-91654285D01*
X140152380Y-91225714D02*
X139152380Y-91225714D01*
X140152380Y-90654285D02*
X139580952Y-91082857D01*
X139152380Y-90654285D02*
X139723809Y-91225714D01*
X137564761Y-92249523D02*
X137612380Y-92106666D01*
X137612380Y-91868571D01*
X137564761Y-91773333D01*
X137517142Y-91725714D01*
X137421904Y-91678095D01*
X137326666Y-91678095D01*
X137231428Y-91725714D01*
X137183809Y-91773333D01*
X137136190Y-91868571D01*
X137088571Y-92059047D01*
X137040952Y-92154285D01*
X136993333Y-92201904D01*
X136898095Y-92249523D01*
X136802857Y-92249523D01*
X136707619Y-92201904D01*
X136660000Y-92154285D01*
X136612380Y-92059047D01*
X136612380Y-91820952D01*
X136660000Y-91678095D01*
X136612380Y-91059047D02*
X136612380Y-90868571D01*
X136660000Y-90773333D01*
X136755238Y-90678095D01*
X136945714Y-90630476D01*
X137279047Y-90630476D01*
X137469523Y-90678095D01*
X137564761Y-90773333D01*
X137612380Y-90868571D01*
X137612380Y-91059047D01*
X137564761Y-91154285D01*
X137469523Y-91249523D01*
X137279047Y-91297142D01*
X136945714Y-91297142D01*
X136755238Y-91249523D01*
X136660000Y-91154285D01*
X136612380Y-91059047D01*
X135024761Y-92225714D02*
X135072380Y-92082857D01*
X135072380Y-91844761D01*
X135024761Y-91749523D01*
X134977142Y-91701904D01*
X134881904Y-91654285D01*
X134786666Y-91654285D01*
X134691428Y-91701904D01*
X134643809Y-91749523D01*
X134596190Y-91844761D01*
X134548571Y-92035238D01*
X134500952Y-92130476D01*
X134453333Y-92178095D01*
X134358095Y-92225714D01*
X134262857Y-92225714D01*
X134167619Y-92178095D01*
X134120000Y-92130476D01*
X134072380Y-92035238D01*
X134072380Y-91797142D01*
X134120000Y-91654285D01*
X134977142Y-90654285D02*
X135024761Y-90701904D01*
X135072380Y-90844761D01*
X135072380Y-90940000D01*
X135024761Y-91082857D01*
X134929523Y-91178095D01*
X134834285Y-91225714D01*
X134643809Y-91273333D01*
X134500952Y-91273333D01*
X134310476Y-91225714D01*
X134215238Y-91178095D01*
X134120000Y-91082857D01*
X134072380Y-90940000D01*
X134072380Y-90844761D01*
X134120000Y-90701904D01*
X134167619Y-90654285D01*
X132484761Y-92201904D02*
X132532380Y-92059047D01*
X132532380Y-91820952D01*
X132484761Y-91725714D01*
X132437142Y-91678095D01*
X132341904Y-91630476D01*
X132246666Y-91630476D01*
X132151428Y-91678095D01*
X132103809Y-91725714D01*
X132056190Y-91820952D01*
X132008571Y-92011428D01*
X131960952Y-92106666D01*
X131913333Y-92154285D01*
X131818095Y-92201904D01*
X131722857Y-92201904D01*
X131627619Y-92154285D01*
X131580000Y-92106666D01*
X131532380Y-92011428D01*
X131532380Y-91773333D01*
X131580000Y-91630476D01*
X132532380Y-90678095D02*
X132532380Y-91249523D01*
X132532380Y-90963809D02*
X131532380Y-90963809D01*
X131675238Y-91059047D01*
X131770476Y-91154285D01*
X131818095Y-91249523D01*
X129944761Y-92201904D02*
X129992380Y-92059047D01*
X129992380Y-91820952D01*
X129944761Y-91725714D01*
X129897142Y-91678095D01*
X129801904Y-91630476D01*
X129706666Y-91630476D01*
X129611428Y-91678095D01*
X129563809Y-91725714D01*
X129516190Y-91820952D01*
X129468571Y-92011428D01*
X129420952Y-92106666D01*
X129373333Y-92154285D01*
X129278095Y-92201904D01*
X129182857Y-92201904D01*
X129087619Y-92154285D01*
X129040000Y-92106666D01*
X128992380Y-92011428D01*
X128992380Y-91773333D01*
X129040000Y-91630476D01*
X129087619Y-91249523D02*
X129040000Y-91201904D01*
X128992380Y-91106666D01*
X128992380Y-90868571D01*
X129040000Y-90773333D01*
X129087619Y-90725714D01*
X129182857Y-90678095D01*
X129278095Y-90678095D01*
X129420952Y-90725714D01*
X129992380Y-91297142D01*
X129992380Y-90678095D01*
X127404761Y-92201904D02*
X127452380Y-92059047D01*
X127452380Y-91820952D01*
X127404761Y-91725714D01*
X127357142Y-91678095D01*
X127261904Y-91630476D01*
X127166666Y-91630476D01*
X127071428Y-91678095D01*
X127023809Y-91725714D01*
X126976190Y-91820952D01*
X126928571Y-92011428D01*
X126880952Y-92106666D01*
X126833333Y-92154285D01*
X126738095Y-92201904D01*
X126642857Y-92201904D01*
X126547619Y-92154285D01*
X126500000Y-92106666D01*
X126452380Y-92011428D01*
X126452380Y-91773333D01*
X126500000Y-91630476D01*
X126452380Y-91297142D02*
X126452380Y-90678095D01*
X126833333Y-91011428D01*
X126833333Y-90868571D01*
X126880952Y-90773333D01*
X126928571Y-90725714D01*
X127023809Y-90678095D01*
X127261904Y-90678095D01*
X127357142Y-90725714D01*
X127404761Y-90773333D01*
X127452380Y-90868571D01*
X127452380Y-91154285D01*
X127404761Y-91249523D01*
X127357142Y-91297142D01*
X123912380Y-92297142D02*
X124912380Y-91963809D01*
X123912380Y-91630476D01*
X123912380Y-91297142D02*
X124721904Y-91297142D01*
X124817142Y-91249523D01*
X124864761Y-91201904D01*
X124912380Y-91106666D01*
X124912380Y-90916190D01*
X124864761Y-90820952D01*
X124817142Y-90773333D01*
X124721904Y-90725714D01*
X123912380Y-90725714D01*
X121420000Y-91178095D02*
X121372380Y-91273333D01*
X121372380Y-91416190D01*
X121420000Y-91559047D01*
X121515238Y-91654285D01*
X121610476Y-91701904D01*
X121800952Y-91749523D01*
X121943809Y-91749523D01*
X122134285Y-91701904D01*
X122229523Y-91654285D01*
X122324761Y-91559047D01*
X122372380Y-91416190D01*
X122372380Y-91320952D01*
X122324761Y-91178095D01*
X122277142Y-91130476D01*
X121943809Y-91130476D01*
X121943809Y-91320952D01*
X119546666Y-92154285D02*
X119546666Y-91678095D01*
X119832380Y-92249523D02*
X118832380Y-91916190D01*
X119832380Y-91582857D01*
X118832380Y-91059047D02*
X118832380Y-90963809D01*
X118880000Y-90868571D01*
X118927619Y-90820952D01*
X119022857Y-90773333D01*
X119213333Y-90725714D01*
X119451428Y-90725714D01*
X119641904Y-90773333D01*
X119737142Y-90820952D01*
X119784761Y-90868571D01*
X119832380Y-90963809D01*
X119832380Y-91059047D01*
X119784761Y-91154285D01*
X119737142Y-91201904D01*
X119641904Y-91249523D01*
X119451428Y-91297142D01*
X119213333Y-91297142D01*
X119022857Y-91249523D01*
X118927619Y-91201904D01*
X118880000Y-91154285D01*
X118832380Y-91059047D01*
X154392380Y-59181904D02*
X154392380Y-58562857D01*
X154773333Y-58896190D01*
X154773333Y-58753333D01*
X154820952Y-58658095D01*
X154868571Y-58610476D01*
X154963809Y-58562857D01*
X155201904Y-58562857D01*
X155297142Y-58610476D01*
X155344761Y-58658095D01*
X155392380Y-58753333D01*
X155392380Y-59039047D01*
X155344761Y-59134285D01*
X155297142Y-59181904D01*
X154392380Y-58277142D02*
X155392380Y-57943809D01*
X154392380Y-57610476D01*
X151900000Y-58158095D02*
X151852380Y-58253333D01*
X151852380Y-58396190D01*
X151900000Y-58539047D01*
X151995238Y-58634285D01*
X152090476Y-58681904D01*
X152280952Y-58729523D01*
X152423809Y-58729523D01*
X152614285Y-58681904D01*
X152709523Y-58634285D01*
X152804761Y-58539047D01*
X152852380Y-58396190D01*
X152852380Y-58300952D01*
X152804761Y-58158095D01*
X152757142Y-58110476D01*
X152423809Y-58110476D01*
X152423809Y-58300952D01*
X149312380Y-59181904D02*
X149312380Y-58610476D01*
X150312380Y-58896190D02*
X149312380Y-58896190D01*
X149312380Y-58372380D02*
X150312380Y-57705714D01*
X149312380Y-57705714D02*
X150312380Y-58372380D01*
X147772380Y-58586666D02*
X147296190Y-58920000D01*
X147772380Y-59158095D02*
X146772380Y-59158095D01*
X146772380Y-58777142D01*
X146820000Y-58681904D01*
X146867619Y-58634285D01*
X146962857Y-58586666D01*
X147105714Y-58586666D01*
X147200952Y-58634285D01*
X147248571Y-58681904D01*
X147296190Y-58777142D01*
X147296190Y-59158095D01*
X146772380Y-58253333D02*
X147772380Y-57586666D01*
X146772380Y-57586666D02*
X147772380Y-58253333D01*
X145232380Y-59158095D02*
X144232380Y-59158095D01*
X144232380Y-58920000D01*
X144280000Y-58777142D01*
X144375238Y-58681904D01*
X144470476Y-58634285D01*
X144660952Y-58586666D01*
X144803809Y-58586666D01*
X144994285Y-58634285D01*
X145089523Y-58681904D01*
X145184761Y-58777142D01*
X145232380Y-58920000D01*
X145232380Y-59158095D01*
X144660952Y-58015238D02*
X144613333Y-58110476D01*
X144565714Y-58158095D01*
X144470476Y-58205714D01*
X144422857Y-58205714D01*
X144327619Y-58158095D01*
X144280000Y-58110476D01*
X144232380Y-58015238D01*
X144232380Y-57824761D01*
X144280000Y-57729523D01*
X144327619Y-57681904D01*
X144422857Y-57634285D01*
X144470476Y-57634285D01*
X144565714Y-57681904D01*
X144613333Y-57729523D01*
X144660952Y-57824761D01*
X144660952Y-58015238D01*
X144708571Y-58110476D01*
X144756190Y-58158095D01*
X144851428Y-58205714D01*
X145041904Y-58205714D01*
X145137142Y-58158095D01*
X145184761Y-58110476D01*
X145232380Y-58015238D01*
X145232380Y-57824761D01*
X145184761Y-57729523D01*
X145137142Y-57681904D01*
X145041904Y-57634285D01*
X144851428Y-57634285D01*
X144756190Y-57681904D01*
X144708571Y-57729523D01*
X144660952Y-57824761D01*
X142692380Y-59158095D02*
X141692380Y-59158095D01*
X141692380Y-58920000D01*
X141740000Y-58777142D01*
X141835238Y-58681904D01*
X141930476Y-58634285D01*
X142120952Y-58586666D01*
X142263809Y-58586666D01*
X142454285Y-58634285D01*
X142549523Y-58681904D01*
X142644761Y-58777142D01*
X142692380Y-58920000D01*
X142692380Y-59158095D01*
X141692380Y-58253333D02*
X141692380Y-57586666D01*
X142692380Y-58015238D01*
X140152380Y-59158095D02*
X139152380Y-59158095D01*
X139152380Y-58920000D01*
X139200000Y-58777142D01*
X139295238Y-58681904D01*
X139390476Y-58634285D01*
X139580952Y-58586666D01*
X139723809Y-58586666D01*
X139914285Y-58634285D01*
X140009523Y-58681904D01*
X140104761Y-58777142D01*
X140152380Y-58920000D01*
X140152380Y-59158095D01*
X139152380Y-57729523D02*
X139152380Y-57920000D01*
X139200000Y-58015238D01*
X139247619Y-58062857D01*
X139390476Y-58158095D01*
X139580952Y-58205714D01*
X139961904Y-58205714D01*
X140057142Y-58158095D01*
X140104761Y-58110476D01*
X140152380Y-58015238D01*
X140152380Y-57824761D01*
X140104761Y-57729523D01*
X140057142Y-57681904D01*
X139961904Y-57634285D01*
X139723809Y-57634285D01*
X139628571Y-57681904D01*
X139580952Y-57729523D01*
X139533333Y-57824761D01*
X139533333Y-58015238D01*
X139580952Y-58110476D01*
X139628571Y-58158095D01*
X139723809Y-58205714D01*
X137612380Y-59158095D02*
X136612380Y-59158095D01*
X136612380Y-58920000D01*
X136660000Y-58777142D01*
X136755238Y-58681904D01*
X136850476Y-58634285D01*
X137040952Y-58586666D01*
X137183809Y-58586666D01*
X137374285Y-58634285D01*
X137469523Y-58681904D01*
X137564761Y-58777142D01*
X137612380Y-58920000D01*
X137612380Y-59158095D01*
X136612380Y-57681904D02*
X136612380Y-58158095D01*
X137088571Y-58205714D01*
X137040952Y-58158095D01*
X136993333Y-58062857D01*
X136993333Y-57824761D01*
X137040952Y-57729523D01*
X137088571Y-57681904D01*
X137183809Y-57634285D01*
X137421904Y-57634285D01*
X137517142Y-57681904D01*
X137564761Y-57729523D01*
X137612380Y-57824761D01*
X137612380Y-58062857D01*
X137564761Y-58158095D01*
X137517142Y-58205714D01*
X134120000Y-58158095D02*
X134072380Y-58253333D01*
X134072380Y-58396190D01*
X134120000Y-58539047D01*
X134215238Y-58634285D01*
X134310476Y-58681904D01*
X134500952Y-58729523D01*
X134643809Y-58729523D01*
X134834285Y-58681904D01*
X134929523Y-58634285D01*
X135024761Y-58539047D01*
X135072380Y-58396190D01*
X135072380Y-58300952D01*
X135024761Y-58158095D01*
X134977142Y-58110476D01*
X134643809Y-58110476D01*
X134643809Y-58300952D01*
X131532380Y-59181904D02*
X131532380Y-58562857D01*
X131913333Y-58896190D01*
X131913333Y-58753333D01*
X131960952Y-58658095D01*
X132008571Y-58610476D01*
X132103809Y-58562857D01*
X132341904Y-58562857D01*
X132437142Y-58610476D01*
X132484761Y-58658095D01*
X132532380Y-58753333D01*
X132532380Y-59039047D01*
X132484761Y-59134285D01*
X132437142Y-59181904D01*
X131532380Y-58277142D02*
X132532380Y-57943809D01*
X131532380Y-57610476D01*
X129992380Y-59158095D02*
X128992380Y-59158095D01*
X128992380Y-58920000D01*
X129040000Y-58777142D01*
X129135238Y-58681904D01*
X129230476Y-58634285D01*
X129420952Y-58586666D01*
X129563809Y-58586666D01*
X129754285Y-58634285D01*
X129849523Y-58681904D01*
X129944761Y-58777142D01*
X129992380Y-58920000D01*
X129992380Y-59158095D01*
X129325714Y-57729523D02*
X129992380Y-57729523D01*
X128944761Y-57967619D02*
X129659047Y-58205714D01*
X129659047Y-57586666D01*
X127452380Y-59158095D02*
X126452380Y-59158095D01*
X126452380Y-58920000D01*
X126500000Y-58777142D01*
X126595238Y-58681904D01*
X126690476Y-58634285D01*
X126880952Y-58586666D01*
X127023809Y-58586666D01*
X127214285Y-58634285D01*
X127309523Y-58681904D01*
X127404761Y-58777142D01*
X127452380Y-58920000D01*
X127452380Y-59158095D01*
X126452380Y-58253333D02*
X126452380Y-57634285D01*
X126833333Y-57967619D01*
X126833333Y-57824761D01*
X126880952Y-57729523D01*
X126928571Y-57681904D01*
X127023809Y-57634285D01*
X127261904Y-57634285D01*
X127357142Y-57681904D01*
X127404761Y-57729523D01*
X127452380Y-57824761D01*
X127452380Y-58110476D01*
X127404761Y-58205714D01*
X127357142Y-58253333D01*
X124912380Y-59158095D02*
X123912380Y-59158095D01*
X123912380Y-58920000D01*
X123960000Y-58777142D01*
X124055238Y-58681904D01*
X124150476Y-58634285D01*
X124340952Y-58586666D01*
X124483809Y-58586666D01*
X124674285Y-58634285D01*
X124769523Y-58681904D01*
X124864761Y-58777142D01*
X124912380Y-58920000D01*
X124912380Y-59158095D01*
X124007619Y-58205714D02*
X123960000Y-58158095D01*
X123912380Y-58062857D01*
X123912380Y-57824761D01*
X123960000Y-57729523D01*
X124007619Y-57681904D01*
X124102857Y-57634285D01*
X124198095Y-57634285D01*
X124340952Y-57681904D01*
X124912380Y-58253333D01*
X124912380Y-57634285D01*
X122372380Y-59158095D02*
X121372380Y-59158095D01*
X121372380Y-58920000D01*
X121420000Y-58777142D01*
X121515238Y-58681904D01*
X121610476Y-58634285D01*
X121800952Y-58586666D01*
X121943809Y-58586666D01*
X122134285Y-58634285D01*
X122229523Y-58681904D01*
X122324761Y-58777142D01*
X122372380Y-58920000D01*
X122372380Y-59158095D01*
X122372380Y-57634285D02*
X122372380Y-58205714D01*
X122372380Y-57920000D02*
X121372380Y-57920000D01*
X121515238Y-58015238D01*
X121610476Y-58110476D01*
X121658095Y-58205714D01*
X119832380Y-59158095D02*
X118832380Y-59158095D01*
X118832380Y-58920000D01*
X118880000Y-58777142D01*
X118975238Y-58681904D01*
X119070476Y-58634285D01*
X119260952Y-58586666D01*
X119403809Y-58586666D01*
X119594285Y-58634285D01*
X119689523Y-58681904D01*
X119784761Y-58777142D01*
X119832380Y-58920000D01*
X119832380Y-59158095D01*
X118832380Y-57967619D02*
X118832380Y-57872380D01*
X118880000Y-57777142D01*
X118927619Y-57729523D01*
X119022857Y-57681904D01*
X119213333Y-57634285D01*
X119451428Y-57634285D01*
X119641904Y-57681904D01*
X119737142Y-57729523D01*
X119784761Y-57777142D01*
X119832380Y-57872380D01*
X119832380Y-57967619D01*
X119784761Y-58062857D01*
X119737142Y-58110476D01*
X119641904Y-58158095D01*
X119451428Y-58205714D01*
X119213333Y-58205714D01*
X119022857Y-58158095D01*
X118927619Y-58110476D01*
X118880000Y-58062857D01*
X118832380Y-57967619D01*
G04 #@! TO.C,D1*
X171981904Y-57602380D02*
X171981904Y-56602380D01*
X172220000Y-56602380D01*
X172362857Y-56650000D01*
X172458095Y-56745238D01*
X172505714Y-56840476D01*
X172553333Y-57030952D01*
X172553333Y-57173809D01*
X172505714Y-57364285D01*
X172458095Y-57459523D01*
X172362857Y-57554761D01*
X172220000Y-57602380D01*
X171981904Y-57602380D01*
X173505714Y-57602380D02*
X172934285Y-57602380D01*
X173220000Y-57602380D02*
X173220000Y-56602380D01*
X173124761Y-56745238D01*
X173029523Y-56840476D01*
X172934285Y-56888095D01*
X168648095Y-55802380D02*
X168648095Y-54802380D01*
X169219523Y-55802380D02*
X168790952Y-55230952D01*
X169219523Y-54802380D02*
X168648095Y-55373809D01*
G04 #@! TO.C,J9*
D11*
X177578571Y-67500000D02*
X178650000Y-67500000D01*
X178864285Y-67571428D01*
X179007142Y-67714285D01*
X179078571Y-67928571D01*
X179078571Y-68071428D01*
X179078571Y-66714285D02*
X179078571Y-66428571D01*
X179007142Y-66285714D01*
X178935714Y-66214285D01*
X178721428Y-66071428D01*
X178435714Y-66000000D01*
X177864285Y-66000000D01*
X177721428Y-66071428D01*
X177650000Y-66142857D01*
X177578571Y-66285714D01*
X177578571Y-66571428D01*
X177650000Y-66714285D01*
X177721428Y-66785714D01*
X177864285Y-66857142D01*
X178221428Y-66857142D01*
X178364285Y-66785714D01*
X178435714Y-66714285D01*
X178507142Y-66571428D01*
X178507142Y-66285714D01*
X178435714Y-66142857D01*
X178364285Y-66071428D01*
X178221428Y-66000000D01*
G04 #@! TO.C,C2*
D14*
X156591000Y-53764285D02*
X156518428Y-53836857D01*
X156300714Y-53909428D01*
X156155571Y-53909428D01*
X155937857Y-53836857D01*
X155792714Y-53691714D01*
X155720142Y-53546571D01*
X155647571Y-53256285D01*
X155647571Y-53038571D01*
X155720142Y-52748285D01*
X155792714Y-52603142D01*
X155937857Y-52458000D01*
X156155571Y-52385428D01*
X156300714Y-52385428D01*
X156518428Y-52458000D01*
X156591000Y-52530571D01*
X157171571Y-52530571D02*
X157244142Y-52458000D01*
X157389285Y-52385428D01*
X157752142Y-52385428D01*
X157897285Y-52458000D01*
X157969857Y-52530571D01*
X158042428Y-52675714D01*
X158042428Y-52820857D01*
X157969857Y-53038571D01*
X157099000Y-53909428D01*
X158042428Y-53909428D01*
G04 #@! TO.C,R1*
D16*
X173016333Y-70227976D02*
X172593000Y-69562738D01*
X172290619Y-70227976D02*
X172290619Y-68830976D01*
X172774428Y-68830976D01*
X172895380Y-68897500D01*
X172955857Y-68964023D01*
X173016333Y-69097071D01*
X173016333Y-69296642D01*
X172955857Y-69429690D01*
X172895380Y-69496214D01*
X172774428Y-69562738D01*
X172290619Y-69562738D01*
X174225857Y-70227976D02*
X173500142Y-70227976D01*
X173863000Y-70227976D02*
X173863000Y-68830976D01*
X173742047Y-69030547D01*
X173621095Y-69163595D01*
X173500142Y-69230119D01*
G04 #@! TO.C,R2*
X172508333Y-60321976D02*
X172085000Y-59656738D01*
X171782619Y-60321976D02*
X171782619Y-58924976D01*
X172266428Y-58924976D01*
X172387380Y-58991500D01*
X172447857Y-59058023D01*
X172508333Y-59191071D01*
X172508333Y-59390642D01*
X172447857Y-59523690D01*
X172387380Y-59590214D01*
X172266428Y-59656738D01*
X171782619Y-59656738D01*
X172992142Y-59058023D02*
X173052619Y-58991500D01*
X173173571Y-58924976D01*
X173475952Y-58924976D01*
X173596904Y-58991500D01*
X173657380Y-59058023D01*
X173717857Y-59191071D01*
X173717857Y-59324119D01*
X173657380Y-59523690D01*
X172931666Y-60321976D01*
X173717857Y-60321976D01*
G04 #@! TO.C,R3*
X172508333Y-62861976D02*
X172085000Y-62196738D01*
X171782619Y-62861976D02*
X171782619Y-61464976D01*
X172266428Y-61464976D01*
X172387380Y-61531500D01*
X172447857Y-61598023D01*
X172508333Y-61731071D01*
X172508333Y-61930642D01*
X172447857Y-62063690D01*
X172387380Y-62130214D01*
X172266428Y-62196738D01*
X171782619Y-62196738D01*
X172931666Y-61464976D02*
X173717857Y-61464976D01*
X173294523Y-61997166D01*
X173475952Y-61997166D01*
X173596904Y-62063690D01*
X173657380Y-62130214D01*
X173717857Y-62263261D01*
X173717857Y-62595880D01*
X173657380Y-62728928D01*
X173596904Y-62795452D01*
X173475952Y-62861976D01*
X173113095Y-62861976D01*
X172992142Y-62795452D01*
X172931666Y-62728928D01*
G04 #@! TO.C,J1*
D14*
X204466008Y-85598000D02*
X205554580Y-85598000D01*
X205772294Y-85670571D01*
X205917437Y-85815714D01*
X205990008Y-86033428D01*
X205990008Y-86178571D01*
X205990008Y-84074000D02*
X205990008Y-84944857D01*
X205990008Y-84509428D02*
X204466008Y-84509428D01*
X204683722Y-84654571D01*
X204828865Y-84799714D01*
X204901437Y-84944857D01*
G04 #@! TO.C,C1*
X159766000Y-97445285D02*
X159693428Y-97517857D01*
X159475714Y-97590428D01*
X159330571Y-97590428D01*
X159112857Y-97517857D01*
X158967714Y-97372714D01*
X158895142Y-97227571D01*
X158822571Y-96937285D01*
X158822571Y-96719571D01*
X158895142Y-96429285D01*
X158967714Y-96284142D01*
X159112857Y-96139000D01*
X159330571Y-96066428D01*
X159475714Y-96066428D01*
X159693428Y-96139000D01*
X159766000Y-96211571D01*
X161217428Y-97590428D02*
X160346571Y-97590428D01*
X160782000Y-97590428D02*
X160782000Y-96066428D01*
X160636857Y-96284142D01*
X160491714Y-96429285D01*
X160346571Y-96501857D01*
G04 #@! TO.C,J10*
D10*
X116502380Y-94789523D02*
X117216666Y-94789523D01*
X117359523Y-94837142D01*
X117454761Y-94932380D01*
X117502380Y-95075238D01*
X117502380Y-95170476D01*
X117502380Y-93789523D02*
X117502380Y-94360952D01*
X117502380Y-94075238D02*
X116502380Y-94075238D01*
X116645238Y-94170476D01*
X116740476Y-94265714D01*
X116788095Y-94360952D01*
X116502380Y-93170476D02*
X116502380Y-93075238D01*
X116550000Y-92980000D01*
X116597619Y-92932380D01*
X116692857Y-92884761D01*
X116883333Y-92837142D01*
X117121428Y-92837142D01*
X117311904Y-92884761D01*
X117407142Y-92932380D01*
X117454761Y-92980000D01*
X117502380Y-93075238D01*
X117502380Y-93170476D01*
X117454761Y-93265714D01*
X117407142Y-93313333D01*
X117311904Y-93360952D01*
X117121428Y-93408571D01*
X116883333Y-93408571D01*
X116692857Y-93360952D01*
X116597619Y-93313333D01*
X116550000Y-93265714D01*
X116502380Y-93170476D01*
G04 #@! TO.C,J11*
X121582380Y-56689523D02*
X122296666Y-56689523D01*
X122439523Y-56737142D01*
X122534761Y-56832380D01*
X122582380Y-56975238D01*
X122582380Y-57070476D01*
X122582380Y-55689523D02*
X122582380Y-56260952D01*
X122582380Y-55975238D02*
X121582380Y-55975238D01*
X121725238Y-56070476D01*
X121820476Y-56165714D01*
X121868095Y-56260952D01*
X122582380Y-54737142D02*
X122582380Y-55308571D01*
X122582380Y-55022857D02*
X121582380Y-55022857D01*
X121725238Y-55118095D01*
X121820476Y-55213333D01*
X121868095Y-55308571D01*
G04 #@! TO.C,C3*
X172224142Y-76005666D02*
X172271761Y-76053285D01*
X172319380Y-76196142D01*
X172319380Y-76291380D01*
X172271761Y-76434238D01*
X172176523Y-76529476D01*
X172081285Y-76577095D01*
X171890809Y-76624714D01*
X171747952Y-76624714D01*
X171557476Y-76577095D01*
X171462238Y-76529476D01*
X171367000Y-76434238D01*
X171319380Y-76291380D01*
X171319380Y-76196142D01*
X171367000Y-76053285D01*
X171414619Y-76005666D01*
X171319380Y-75672333D02*
X171319380Y-75053285D01*
X171700333Y-75386619D01*
X171700333Y-75243761D01*
X171747952Y-75148523D01*
X171795571Y-75100904D01*
X171890809Y-75053285D01*
X172128904Y-75053285D01*
X172224142Y-75100904D01*
X172271761Y-75148523D01*
X172319380Y-75243761D01*
X172319380Y-75529476D01*
X172271761Y-75624714D01*
X172224142Y-75672333D01*
G04 #@! TO.C,R4*
D16*
X177669976Y-76030666D02*
X177004738Y-76454000D01*
X177669976Y-76756380D02*
X176272976Y-76756380D01*
X176272976Y-76272571D01*
X176339500Y-76151619D01*
X176406023Y-76091142D01*
X176539071Y-76030666D01*
X176738642Y-76030666D01*
X176871690Y-76091142D01*
X176938214Y-76151619D01*
X177004738Y-76272571D01*
X177004738Y-76756380D01*
X176738642Y-74942095D02*
X177669976Y-74942095D01*
X176206452Y-75244476D02*
X177204309Y-75546857D01*
X177204309Y-74760666D01*
G04 #@! TD*
M02*
