M48
;DRILL file {KiCad 5.0.2-bee76a0~70~ubuntu18.04.1} date Mo 21 Jan 2019 18:35:01 CET
;FORMAT={-:-/ absolute / metric / decimal}
FMAT,2
METRIC,TZ
T1C0.650
T2C0.762
T3C0.800
T4C0.800
T5C1.000
T6C1.001
T7C1.300
%
G90
G05
T1
X156.845Y-56.42
X156.845Y-58.42
X160.02Y-91.71
X160.02Y-93.71
T2
X119.38Y-60.96
X119.38Y-88.9
X121.92Y-60.96
X121.92Y-88.9
X124.46Y-60.96
X124.46Y-88.9
X127.Y-60.96
X127.Y-88.9
X129.54Y-60.96
X129.54Y-88.9
X132.08Y-60.96
X132.08Y-88.9
X134.62Y-60.96
X134.62Y-88.9
X137.16Y-60.96
X137.16Y-88.9
X139.7Y-60.96
X139.7Y-88.9
X142.24Y-60.96
X142.24Y-88.9
X144.78Y-60.96
X144.78Y-88.9
X147.32Y-60.96
X147.32Y-88.9
X149.86Y-60.96
X149.86Y-88.9
X152.4Y-60.96
X152.4Y-88.9
X154.94Y-60.96
X154.94Y-88.9
T3
X168.91Y-57.15
X176.53Y-57.15
T4
X169.164Y-72.009
X176.784Y-72.009
X168.91Y-62.23
X176.53Y-62.23
X168.91Y-59.69
X176.53Y-59.69
T5
X119.38Y-74.93
X121.92Y-74.93
X124.46Y-74.93
X127.Y-74.93
X129.54Y-74.93
X132.08Y-74.93
X134.62Y-74.93
X137.16Y-74.93
X139.7Y-74.93
X142.24Y-74.93
X144.78Y-74.93
X147.32Y-74.93
X149.86Y-74.93
X152.4Y-74.93
X154.94Y-74.93
X119.38Y-63.5
X121.92Y-63.5
X124.46Y-63.5
X127.Y-63.5
X129.54Y-63.5
X132.08Y-63.5
X134.62Y-63.5
X137.16Y-63.5
X139.7Y-63.5
X142.24Y-63.5
X144.78Y-63.5
X147.32Y-63.5
X149.86Y-63.5
X152.4Y-63.5
X154.94Y-63.5
X119.38Y-77.47
X121.92Y-77.47
X124.46Y-77.47
X127.Y-77.47
X129.54Y-77.47
X132.08Y-77.47
X134.62Y-77.47
X137.16Y-77.47
X139.7Y-77.47
X142.24Y-77.47
X144.78Y-77.47
X147.32Y-77.47
X149.86Y-77.47
X152.4Y-77.47
X154.94Y-77.47
X119.38Y-66.04
X121.92Y-66.04
X124.46Y-66.04
X127.Y-66.04
X129.54Y-66.04
X132.08Y-66.04
X134.62Y-66.04
X137.16Y-66.04
X139.7Y-66.04
X142.24Y-66.04
X144.78Y-66.04
X147.32Y-66.04
X149.86Y-66.04
X152.4Y-66.04
X154.94Y-66.04
X119.38Y-72.39
X121.92Y-72.39
X124.46Y-72.39
X127.Y-72.39
X129.54Y-72.39
X132.08Y-72.39
X134.62Y-72.39
X137.16Y-72.39
X139.7Y-72.39
X142.24Y-72.39
X144.78Y-72.39
X147.32Y-72.39
X149.86Y-72.39
X152.4Y-72.39
X154.94Y-72.39
X119.38Y-86.36
X121.92Y-86.36
X124.46Y-86.36
X127.Y-86.36
X129.54Y-86.36
X132.08Y-86.36
X134.62Y-86.36
X137.16Y-86.36
X139.7Y-86.36
X142.24Y-86.36
X144.78Y-86.36
X147.32Y-86.36
X149.86Y-86.36
X152.4Y-86.36
X154.94Y-86.36
X124.46Y-55.88
X127.Y-55.88
X129.54Y-55.88
X132.08Y-55.88
X134.62Y-55.88
X137.16Y-55.88
X139.7Y-55.88
X142.24Y-55.88
X144.78Y-55.88
X147.32Y-55.88
X149.86Y-55.88
X119.38Y-83.82
X121.92Y-83.82
X124.46Y-83.82
X127.Y-83.82
X129.54Y-83.82
X132.08Y-83.82
X134.62Y-83.82
X137.16Y-83.82
X139.7Y-83.82
X142.24Y-83.82
X144.78Y-83.82
X147.32Y-83.82
X149.86Y-83.82
X152.4Y-83.82
X154.94Y-83.82
X119.38Y-93.98
X121.92Y-93.98
X124.46Y-93.98
X127.Y-93.98
X129.54Y-93.98
X132.08Y-93.98
X134.62Y-93.98
X137.16Y-93.98
X139.7Y-93.98
X142.24Y-93.98
X144.78Y-93.98
X147.32Y-93.98
X149.86Y-93.98
X152.4Y-93.98
X154.94Y-93.98
T7
X185.Y-57.
X185.Y-62.
X185.Y-67.
X185.Y-72.
X185.Y-77.
T6
X190.35Y-86.34G85X190.35Y-83.84
G05
X192.101Y-79.789G85X194.1Y-79.789
G05
X196.352Y-86.089G85X196.352Y-84.091
G05
T0
M30
